<svg xmlns="http://www.w3.org/2000/svg" viewBox="0 0 96 96" role="img" aria-label="Neon Ledger">
  <defs>
    <linearGradient id="frame" x1="18" y1="14" x2="78" y2="82" gradientUnits="userSpaceOnUse">
      <stop offset="0" stop-color="#2fffe6"/>
      <stop offset="0.52" stop-color="#4d7cff"/>
      <stop offset="1" stop-color="#ff3c8a"/>
    </linearGradient>
    <linearGradient id="mark" x1="26" y1="26" x2="70" y2="70" gradientUnits="userSpaceOnUse">
      <stop offset="0" stop-color="#ffffff"/>
      <stop offset="0.45" stop-color="#31f7df"/>
      <stop offset="1" stop-color="#ff4d9a"/>
    </linearGradient>
    <filter id="softGlow" x="-50%" y="-50%" width="200%" height="200%">
      <feGaussianBlur stdDeviation="3.4" result="blur"/>
      <feColorMatrix in="blur" type="matrix" values="0 0 0 0 0.13 0 0 0 0 0.95 0 0 0 0 0.86 0 0 0 0.72 0"/>
      <feMerge>
        <feMergeNode/>
        <feMergeNode in="SourceGraphic"/>
      </feMerge>
    </filter>
    <filter id="hotGlow" x="-60%" y="-60%" width="220%" height="220%">
      <feGaussianBlur stdDeviation="2.2" result="blur"/>
      <feMerge>
        <feMergeNode in="blur"/>
        <feMergeNode in="SourceGraphic"/>
      </feMerge>
    </filter>
  </defs>

  <rect width="96" height="96" rx="24" fill="#071013"/>
  <path d="M16 29c0-8.3 6.7-15 15-15h34c8.3 0 15 6.7 15 15v38c0 8.3-6.7 15-15 15H31c-8.3 0-15-6.7-15-15V29Z" fill="#0b1820"/>
  <path d="M31 14h34c8.3 0 15 6.7 15 15v38c0 8.3-6.7 15-15 15H31c-8.3 0-15-6.7-15-15V29c0-8.3 6.7-15 15-15Z" fill="none" stroke="url(#frame)" stroke-width="3" filter="url(#softGlow)"/>

  <path d="M31 28h27c5.5 0 10 4.5 10 10v35H38c-5.5 0-10-4.5-10-10V31c0-1.7 1.3-3 3-3Z" fill="#0f2028" stroke="#233945" stroke-width="2"/>
  <path d="M38 36h22M38 46h16M38 56h11" stroke="#365464" stroke-width="3" stroke-linecap="round"/>

  <path d="M31 68V30l34 38V30" fill="none" stroke="url(#mark)" stroke-width="7" stroke-linecap="round" stroke-linejoin="round" filter="url(#hotGlow)"/>
  <path d="M31 68V30l34 38V30" fill="none" stroke="#ffffff" stroke-opacity="0.68" stroke-width="2.2" stroke-linecap="round" stroke-linejoin="round"/>

  <circle cx="31" cy="30" r="4" fill="#2fffe6"/>
  <circle cx="65" cy="68" r="4" fill="#ff3c8a"/>
  <circle cx="65" cy="30" r="4" fill="#4d7cff"/>
  <path d="M24 76h48" stroke="url(#frame)" stroke-width="4" stroke-linecap="round" opacity="0.85"/>
</svg>
